Coordinates
version=1
nRows=29
nColumns=24
inDegrees=yes

Units are S.I. units (second, meters, Newtons, ...)
Angles are in degrees.

endheader
time	pelvis_tilt	pelvis_list	pelvis_rotation	pelvis_tx	pelvis_ty	pelvis_tz	hip_flexion_r	hip_adduction_r	hip_rotation_r	knee_angle_r	ankle_angle_r	subtalar_angle_r	mtp_angle_r	hip_flexion_l	hip_adduction_l	hip_rotation_l	knee_angle_l	ankle_angle_l	subtalar_angle_l	mtp_angle_l	lumbar_extension	lumbar_bending	lumbar_rotation
      0.55800000	      0.56752765	      3.96093881	     -6.44327817	     -0.60378455	      1.00170542	      0.34401372	     19.03274192	     -1.84128653	      6.89209361	    -11.35854248	      3.08234918	     -4.73970019	      8.16330919	    -11.60120251	      8.84408655	     -0.89745724	    -27.02138883	     -5.23131527	    -15.18552735	     23.87470459	    -11.17747888	      4.97619419	     -3.88857170
      0.56216667	      0.57155386	      3.80801375	     -6.37182855	     -0.59780916	      1.00118928	      0.34467886	     19.06024814	     -1.62839427	      6.92817892	    -12.22941823	      3.04857471	     -5.03937373	      8.19899427	    -11.23219376	      8.56022696	     -1.29395635	    -28.30106767	     -5.99130404	    -15.03440081	     23.91264511	    -11.13655441	      5.15476877	     -3.88686910
      0.56633333	      0.61724900	      3.64509507	     -6.31074221	     -0.59183103	      1.00071445	      0.34535622	     19.04734353	     -1.40715298	      6.94511523	    -13.11835574	      3.11084802	     -5.28635274	      8.21313387	    -10.90143197	      8.26713351	     -1.67698012	    -29.57464636	     -6.84453923	    -14.89703326	     23.96013964	    -11.15930656	      5.35810205	     -3.84722324
      0.57050000	      0.57787593	      3.49505004	     -6.23477091	     -0.58590823	      1.00010365	      0.34606538	     19.13724490	     -1.18492798	      6.95114150	    -14.02605032	      3.15759532	     -5.58335323	      8.22357865	    -10.42513874	      7.95084731	     -2.10323729	    -30.94417393	     -7.63450894	    -14.69051542	     24.13724169	    -11.07561024	      5.52025891	     -3.78113069
      0.57466667	      0.60288517	      3.32448239	     -6.17419378	     -0.57997111	      0.99959624	      0.34681222	     19.14273322	     -0.94553138	      6.94794285	    -14.91224069	      3.31811437	     -5.80018775	      8.22115597	    -10.01717007	      7.61079331	     -2.53855771	    -32.29413432	     -8.55596543	    -14.54821953	     24.32991900	    -11.07256544	      5.69019422	     -3.73102592
      0.57883333	      0.66866747	      3.14501175	     -6.10896873	     -0.57405428	      0.99915272	      0.34753931	     19.09897706	     -0.70448211	      6.92687134	    -15.79562689	      3.56790714	     -5.99062621	      8.21535335	     -9.64486721	      7.26216065	     -2.93392492	    -33.63876117	     -9.55662275	    -14.39738587	     24.44630019	    -11.13576359	      5.90769427	     -3.68032848
      0.58300000	      0.69681452	      2.95581501	     -6.04583564	     -0.56816353	      0.99865797	      0.34831215	     19.09158187	     -0.44401631	      6.90257550	    -16.67361501	      3.85121354	     -6.17036918	      8.20062008	     -9.20497014	      6.87945011	     -3.35907490	    -35.02331936	    -10.56850676	    -14.25562842	     24.58742588	    -11.14722634	      6.10685619	     -3.61768822
      0.58716667	      0.67408003	      2.80106465	     -5.98469313	     -0.56232474	      0.99806119	      0.34909970	     19.17215332	     -0.21167608	      6.84285342	    -17.61076498	      4.17286546	     -6.31371685	      8.15046003	     -8.68209336	      6.51817250	     -3.77738137	    -36.43516690	    -11.60106632	    -14.15200384	     24.88414385	    -11.08688416	      6.23072642	     -3.53866282
      0.59133333	      0.72165853	      2.59727225	     -5.90433026	     -0.55648222	      0.99760884	      0.34987217	     19.12646570	      0.05679008	      6.77970251	    -18.46778492	      4.61172710	     -6.43593140	      7.00671638	     -8.23879580	      6.10014121	     -4.15363042	    -37.81954698	    -12.77679879	    -14.08552907	     29.46806945	    -11.13872093	      6.45317911	     -3.47786194
      0.59550000	      0.80820811	      2.38454331	     -5.84411967	     -0.55066811	      0.99723876	      0.35069282	     19.01446760	      0.33807542	      6.74648830	    -19.26693921	      5.03186331	     -6.58704505	      7.00352630	     -7.82624701	      5.66661068	     -4.55148583	    -39.20846536	    -13.93178305	    -13.92901403	     29.45606695	    -11.23617465	      6.66523632	     -3.42554076
      0.59966667	      0.84635974	      2.17817612	     -5.78402741	     -0.54490144	      0.99677830	      0.35151690	     18.95902373	      0.61858293	      6.70575675	    -20.07162355	      5.49902618	     -6.71534711	      6.99039098	     -7.33981164	      5.22758305	     -4.93878531	    -40.62150145	    -15.09879196	    -13.82773103	     29.43922382	    -11.27956591	      6.86487764	     -3.35556630
      0.60383333	      0.86367233	      1.98612538	     -5.72146847	     -0.53916883	      0.99631262	      0.35233169	     18.93035172	      0.88135372	      6.63111775	    -20.87846803	      5.96897793	     -6.80757235	      6.94652447	     -6.82007854	      4.80045091	     -5.29348569	    -42.02587215	    -16.29788510	    -13.79230051	     29.39936896	    -11.29072241	      7.03889290	     -3.27356839
      0.60800000	      0.92880478	      1.76455889	     -5.64677977	     -0.53347107	      0.99593960	      0.35315058	     18.80095204	      1.16885354	      6.58039172	    -21.59086901	      6.50238478	     -6.92658992	      6.92069592	     -6.34497851	      4.33855833	     -5.60994033	    -43.42459450	    -17.50346952	    -13.66419298	     29.35519880	    -11.38271797	      7.25405085	     -3.21102838
      0.61216667	      0.92664213	      1.58957290	     -5.57016194	     -0.52781780	      0.99548768	      0.35393430	     18.76577489	      1.40632780	      6.48879913	    -22.33234163	      7.02630289	     -6.98350348	      6.79093015	     -5.77925566	      3.92789187	     -5.88883910	    -44.80808274	    -18.79634978	    -13.71313642	     29.17599786	    -11.37704289	      7.39978364	     -3.12314231
      0.61633333	      1.00405662	      1.35051815	     -5.50505704	     -0.52218418	      0.99519334	      0.35476987	     18.57916030	      1.71048161	      6.44707166	    -22.94792700	      7.56082619	     -7.07458616	      6.75131432	     -5.30290352	      3.43804342	     -6.18937935	    -46.18084909	    -20.00070978	    -13.58907369	     29.08330301	    -11.49312777	      7.63056965	     -3.06604243
      0.62050000	      0.99738929	      1.18841778	     -5.41760559	     -0.51660708	      0.99477722	      0.35552292	     18.51487876	      1.92498443	      6.33617483	    -23.60837822	      8.09324400	     -7.12811373	      6.51551672	     -4.71531861	      3.04674527	     -6.39452400	    -47.52866177	    -21.32106005	    -13.71393648	     28.59357863	    -11.48751206	      7.75393935	     -2.97313537
      0.62466667	      1.06137893	      0.97085571	     -5.35538760	     -0.51106488	      0.99447921	      0.35630588	     18.33871728	      2.19420418	      6.24610276	    -24.20535761	      8.72671967	     -7.02368901	      4.22757198	     -4.20050968	      2.59166302	     -6.63729328	    -48.88751448	    -22.40913191	    -13.60305368	     23.30594867	    -11.59948822	      7.96566315	     -2.91677594
      0.62883333	      1.12373879	      0.72262482	     -5.27928075	     -0.50553671	      0.99426692	      0.35711951	     18.09948669	      2.50054755	      6.19330979	    -24.66106707	      9.15878216	     -7.17266105	      4.20768620	     -3.68630719	      2.09101709	     -6.85880645	    -50.19978448	    -23.60385870	    -13.56972295	     23.20691208	    -11.70019670	      8.19712002	     -2.84298011
      0.63300000	      1.15231909	      0.50545471	     -5.19709701	     -0.50004787	      0.99401923	      0.35789761	     17.89851497	      2.76790511	      6.10882257	    -25.11052024	      9.63803690	     -7.23668157	      4.17808914	     -3.12380041	      1.63339171	     -7.03121916	    -51.48711517	    -24.77295283	    -13.58969168	     23.02277831	    -11.75889091	      8.38774877	     -2.76410727
      0.63716667	      1.18518274	      0.30919183	     -5.11142315	     -0.49460661	      0.99381020	      0.35863100	     17.68460082	      3.00418628	      6.00756113	    -25.53197804	     10.11925925	     -7.25937506	      4.12901013	     -2.55891348	      1.21325558	     -7.15956089	    -52.73702144	    -25.91841117	    -13.65645831	     22.70475682	    -11.82898779	      8.55978622	     -2.68907158
      0.64133333	      1.23259563	      0.15790352	     -4.99887205	     -0.48921724	      0.99364601	      0.35925576	     17.46033920	      3.16717615	      5.83891421	    -25.95863648	     10.74968596	     -7.09660132	      2.86243907	     -1.99063253	      0.87551763	     -7.18777354	    -53.97098656	    -26.84387815	    -13.59225615	     15.52309605	    -11.92196323	      8.67901026	     -2.64123926
      0.64550000	      1.26059056	     -0.07189400	     -4.90574026	     -0.48382760	      0.99353981	      0.35998548	     17.17699239	      3.44064714	      5.76945690	    -26.21687439	     11.09432140	     -7.24693687	      2.84511493	     -1.41295038	      0.42320433	     -7.27321609	    -55.15952010	    -27.84370147	    -13.61964476	     15.38797902	    -11.99766250	      8.89265668	     -2.55070411
      0.64966667	      1.32275721	     -0.27833188	     -4.79628180	     -0.47846196	      0.99352896	      0.36064325	     16.85260490	      3.66736396	      5.63945359	    -26.45948616	     11.50025910	     -7.27377421	      2.82310457	     -0.86986051	      0.01906533	     -7.30245113	    -56.29526355	    -28.75735068	    -13.67131617	     15.16388718	    -12.10204522	      9.06615107	     -2.47338583
      0.65383333	      1.32743818	     -0.41181871	     -4.66523578	     -0.47315896	      0.99343821	      0.36118281	     16.61391214	      3.79995872	      5.45120904	    -26.73886384	     12.03470228	     -7.13143759	      2.05398299	     -0.23706658	     -0.27122154	     -7.23955640	    -57.41790423	    -29.44243323	    -13.66745801	      9.25472928	    -12.14295426	      9.17793782	     -2.45625822
      0.65800000	      1.38102121	     -0.61147569	     -4.55326680	     -0.46785035	      0.99352313	      0.36180370	     16.25059231	      4.01744673	      5.33692765	    -26.86501745	     12.34544501	     -7.20544283	      2.04533976	      0.32298883	     -0.64708035	     -7.21935166	    -58.46762371	    -30.17206405	    -13.71474556	      9.15253950	    -12.24629841	      9.34326843	     -2.34502505
      0.66216667	      1.40682831	     -0.78342712	     -4.42511293	     -0.46257286	      0.99359920	      0.36234658	     15.91728853	      4.19287743	      5.17934860	    -26.98264709	     12.68785082	     -7.20481493	      2.02909834	      0.92359347	     -0.97217262	     -7.14759184	    -59.47995308	    -30.76521826	    -13.79577766	      8.95256866	    -12.31597780	      9.48852202	     -2.25621027
      0.66633333	      1.44757224	     -0.89689778	     -4.25170260	     -0.45733817	      0.99375736	      0.36275119	     15.56644924	      4.27867285	      4.94794626	    -27.08581509	     13.06661233	     -7.12983589	      1.49178237	      1.52463212	     -1.18783510	     -6.96584161	    -60.44214699	    -31.15878669	    -13.84740354	      4.23891523	    -12.39613536	      9.57206920	     -2.23100909
      0.67050000	      1.49302058	     -1.05137585	     -4.14088669	     -0.45208798	      0.99396683	      0.36327524	     15.16979568	      4.43643965	      4.82716737	    -27.10731235	     13.41338179	     -7.10402604	      1.49162985	      2.09792311	     -1.46906713	     -6.87921692	    -61.34504419	    -31.46750591	    -13.87476825	      4.18517868	    -12.49232921	      9.69809966	     -2.12948665
      0.67466667	      1.53166074	     -1.20450728	     -3.98930199	     -0.44685622	      0.99424838	      0.36370403	     14.76031364	      4.57605815	      4.64824984	    -27.07833484	     13.66968142	     -7.10698271	      1.14309648	      2.68965908	     -1.72656091	     -6.72322955	    -62.20713078	    -31.60022294	    -13.89477222	      1.59112374	    -12.57244039	      9.82240545	     -2.03849601
